
<svg width="200" height="200" viewBox="0 0 200 200" fill="none" xmlns="http://www.w3.org/2000/svg">
  <path d="M20 20H80V80H20V20Z" stroke="#1E88E5" stroke-opacity="0.2" stroke-width="1"/>
  <path d="M120 20H180V80H120V20Z" stroke="#1E88E5" stroke-opacity="0.2" stroke-width="1"/>
  <path d="M20 120H80V180H20V120Z" stroke="#1E88E5" stroke-opacity="0.2" stroke-width="1"/>
  <path d="M120 120H180V180H120V120Z" stroke="#1E88E5" stroke-opacity="0.2" stroke-width="1"/>
  <circle cx="20" cy="20" r="3" fill="#1E88E5" fill-opacity="0.2"/>
  <circle cx="80" cy="20" r="3" fill="#1E88E5" fill-opacity="0.2"/>
  <circle cx="80" cy="80" r="3" fill="#1E88E5" fill-opacity="0.2"/>
  <circle cx="20" cy="80" r="3" fill="#1E88E5" fill-opacity="0.2"/>
  <circle cx="120" cy="20" r="3" fill="#1E88E5" fill-opacity="0.2"/>
  <circle cx="180" cy="20" r="3" fill="#1E88E5" fill-opacity="0.2"/>
  <circle cx="180" cy="80" r="3" fill="#1E88E5" fill-opacity="0.2"/>
  <circle cx="120" cy="80" r="3" fill="#1E88E5" fill-opacity="0.2"/>
  <circle cx="20" cy="120" r="3" fill="#1E88E5" fill-opacity="0.2"/>
  <circle cx="80" cy="120" r="3" fill="#1E88E5" fill-opacity="0.2"/>
  <circle cx="80" cy="180" r="3" fill="#1E88E5" fill-opacity="0.2"/>
  <circle cx="20" cy="180" r="3" fill="#1E88E5" fill-opacity="0.2"/>
  <circle cx="120" cy="120" r="3" fill="#1E88E5" fill-opacity="0.2"/>
  <circle cx="180" cy="120" r="3" fill="#1E88E5" fill-opacity="0.2"/>
  <circle cx="180" cy="180" r="3" fill="#1E88E5" fill-opacity="0.2"/>
  <circle cx="120" cy="180" r="3" fill="#1E88E5" fill-opacity="0.2"/>
  <line x1="50" y1="20" x2="50" y2="10" stroke="#1E88E5" stroke-opacity="0.2" stroke-width="1"/>
  <line x1="20" y1="50" x2="10" y2="50" stroke="#1E88E5" stroke-opacity="0.2" stroke-width="1"/>
  <line x1="80" y1="50" x2="90" y2="50" stroke="#1E88E5" stroke-opacity="0.2" stroke-width="1"/>
  <line x1="50" y1="80" x2="50" y2="90" stroke="#1E88E5" stroke-opacity="0.2" stroke-width="1"/>
  <line x1="150" y1="20" x2="150" y2="10" stroke="#1E88E5" stroke-opacity="0.2" stroke-width="1"/>
  <line x1="120" y1="50" x2="110" y2="50" stroke="#1E88E5" stroke-opacity="0.2" stroke-width="1"/>
  <line x1="180" y1="50" x2="190" y2="50" stroke="#1E88E5" stroke-opacity="0.2" stroke-width="1"/>
  <line x1="150" y1="80" x2="150" y2="90" stroke="#1E88E5" stroke-opacity="0.2" stroke-width="1"/>
  <line x1="50" y1="120" x2="50" y2="110" stroke="#1E88E5" stroke-opacity="0.2" stroke-width="1"/>
  <line x1="20" y1="150" x2="10" y2="150" stroke="#1E88E5" stroke-opacity="0.2" stroke-width="1"/>
  <line x1="80" y1="150" x2="90" y2="150" stroke="#1E88E5" stroke-opacity="0.2" stroke-width="1"/>
  <line x1="50" y1="180" x2="50" y2="190" stroke="#1E88E5" stroke-opacity="0.2" stroke-width="1"/>
  <line x1="150" y1="120" x2="150" y2="110" stroke="#1E88E5" stroke-opacity="0.2" stroke-width="1"/>
  <line x1="120" y1="150" x2="110" y2="150" stroke="#1E88E5" stroke-opacity="0.2" stroke-width="1"/>
  <line x1="180" y1="150" x2="190" y2="150" stroke="#1E88E5" stroke-opacity="0.2" stroke-width="1"/>
  <line x1="150" y1="180" x2="150" y2="190" stroke="#1E88E5" stroke-opacity="0.2" stroke-width="1"/>
  <path d="M90 50H110" stroke="#1E88E5" stroke-opacity="0.2" stroke-width="1"/>
  <path d="M50 90V110" stroke="#1E88E5" stroke-opacity="0.2" stroke-width="1"/>
  <path d="M150 90V110" stroke="#1E88E5" stroke-opacity="0.2" stroke-width="1"/>
  <path d="M90 150H110" stroke="#1E88E5" stroke-opacity="0.2" stroke-width="1"/>
</svg>
